<svg width="480" height="414" viewBox="0 0 480 414" fill="none" xmlns="http://www.w3.org/2000/svg">
<rect y="219" width="480" height="195" rx="2" fill="#297CFD" fill-opacity="0.44"/>
<path d="M167.125 4.83159C164.676 2.32952 161.053 1.4041 157.675 2.38338L78.8913 25.1468C75.3267 26.1359 72.8002 28.9611 72.1196 32.5453C71.4243 36.198 73.8529 40.8398 77.0258 42.7788L101.66 57.8205C104.186 59.3678 107.447 58.981 109.538 56.8853L137.746 28.6771C139.166 27.2033 141.516 27.2033 142.936 28.6771C144.356 30.0922 144.356 32.3984 142.936 33.8673L114.679 62.0755C112.583 64.1712 112.192 67.4224 113.734 69.9538L128.786 94.6807C130.548 97.6136 133.584 99.2833 136.914 99.2833C137.305 99.2833 137.746 99.2833 138.138 99.2295C141.957 98.7447 144.993 96.1447 146.119 92.4724L169.475 14.2817C170.503 10.9521 169.573 7.32876 167.125 4.83159" stroke="#F77E53" stroke-width="3.09247"/>
<path d="M74.576 72.6111L85.3997 61.7875" stroke="#F77E53" stroke-width="3.09247" stroke-linecap="round"/>
<path d="M93.1309 78.7961L103.955 67.9724" stroke="#F77E53" stroke-width="3.09247" stroke-linecap="round"/>
<path d="M97.7695 97.3509L108.593 86.5272" stroke="#F77E53" stroke-width="3.09247" stroke-linecap="round"/>
<circle cx="385" cy="314" r="64" fill="#F77E53"/>
<path d="M364.363 322.997L365.024 324.362C365.024 324.362 375.504 332.873 384.481 332.873C393.458 332.873 403.985 324.362 403.985 324.362L404.598 322.997H404.598C403.591 319.986 402.354 315.852 401.486 311.486L399.568 310.407H369.113L367.476 311.486C366.608 315.852 365.37 319.986 364.363 322.997H364.363Z" fill="white"/>
<path d="M373.264 310.871L373.968 310.407H369.113L367.476 311.486C366.608 315.852 365.37 319.986 364.363 322.997H364.363L365.024 324.362C365.024 324.362 366.637 325.672 369.139 327.264C370.606 322.366 372.101 316.723 373.264 310.871V310.871Z" fill="white"/>
<path d="M418.842 301.131L386.233 290.11C385.097 289.726 383.866 289.726 382.731 290.11L350.12 301.131C349.279 301.416 349.204 302.577 350.003 302.967L382.085 318.608C383.597 319.345 385.365 319.345 386.878 318.608L418.96 302.967C419.759 302.577 419.684 301.416 418.842 301.131V301.131Z" fill="white"/>
<path d="M359.873 302.967C359.074 302.577 359.148 301.416 359.99 301.131L389.416 291.186L386.232 290.11C385.097 289.726 383.866 289.726 382.73 290.11L350.12 301.131C349.279 301.416 349.204 302.577 350.003 302.967L382.085 318.608C383.597 319.345 385.365 319.345 386.878 318.608L389.416 317.37L359.873 302.967Z" fill="white"/>
<path d="M411.617 328.83C411.033 328.83 410.559 328.357 410.559 327.773V308.216C410.559 307.714 410.22 307.275 409.734 307.148L385.869 300.855C385.304 300.706 384.967 300.128 385.116 299.563C385.265 298.999 385.843 298.661 386.408 298.81L410.271 305.102C411.685 305.472 412.674 306.752 412.674 308.216V327.772C412.674 328.357 412.201 328.83 411.617 328.83Z" fill="white"/>
<path d="M413.468 330.123H409.766L409.325 336.971C409.289 337.538 409.726 338.019 410.279 338.019H412.954C413.507 338.019 413.945 337.538 413.908 336.971L413.468 330.123Z" fill="white"/>
<path d="M411.735 336.971L412.175 330.123H409.766L409.325 336.971C409.289 337.538 409.726 338.019 410.279 338.019H412.689C412.136 338.019 411.698 337.538 411.735 336.971Z" fill="white"/>
<path d="M412.474 325.202H410.76C409.906 325.202 409.208 325.901 409.208 326.754V329.836C409.208 330.117 409.435 330.344 409.715 330.344H413.519C413.799 330.344 414.026 330.117 414.026 329.836V326.754C414.026 325.9 413.328 325.202 412.474 325.202V325.202Z" fill="white"/>
<path d="M411.933 329.836V326.754C411.933 326.077 412.373 325.5 412.98 325.288C412.821 325.233 412.651 325.201 412.474 325.201H410.76C409.906 325.201 409.208 325.9 409.208 326.754V329.836C409.208 330.116 409.435 330.343 409.715 330.343H412.441C412.161 330.343 411.933 330.116 411.933 329.836V329.836Z" fill="white"/>
<path d="M384.7 296.89C382.666 296.767 380.979 298.38 380.979 300.386V300.404C380.984 301.306 381.74 302.026 382.642 302.026H386.321C387.194 302.026 388.034 301.351 387.98 300.215C387.895 298.448 386.465 296.997 384.7 296.89V296.89Z" fill="white"/>
<path d="M384.151 300.404C384.151 300.398 384.151 300.392 384.151 300.386C384.151 299.025 384.928 297.847 386.061 297.267C385.646 297.055 385.187 296.92 384.7 296.89C382.666 296.767 380.979 298.38 380.979 300.386V300.404C380.984 301.306 381.74 302.026 382.642 302.026H385.815C384.912 302.026 384.156 301.306 384.151 300.404Z" fill="white"/>
<path d="M404.599 322.997C400.924 326.018 394.947 329.399 388.491 331.48C385.932 332.305 383.096 332.325 380.471 331.48C374.03 329.404 368.055 326.031 364.363 322.997C364.01 324.053 363.685 324.971 363.414 325.712C362.949 326.985 363.35 328.415 364.415 329.253C370.318 333.892 376.548 336.427 380.471 337.691C381.767 338.108 383.12 338.317 384.481 338.317C385.842 338.317 387.195 338.108 388.491 337.691C392.414 336.427 398.644 333.892 404.547 329.253C405.612 328.415 406.013 326.985 405.548 325.712C405.277 324.971 404.952 324.053 404.599 322.997V322.997Z" fill="white"/>
<path d="M369.378 326.463C367.45 325.317 365.746 324.134 364.363 322.997C364.01 324.053 363.685 324.971 363.414 325.712C362.949 326.985 363.35 328.415 364.415 329.253C365.529 330.128 366.653 330.928 367.772 331.659C368.294 330.043 368.835 328.302 369.378 326.463V326.463Z" fill="white"/>
<circle cx="57.7059" cy="371.294" r="31.7059" fill="#B8DCFF"/>
<rect x="53.1765" y="249" width="241.043" height="120.522" rx="15.098" fill="white"/>
<path d="M155.684 283.207H154.349C154.297 282.922 154.202 282.671 154.062 282.454C153.922 282.237 153.751 282.053 153.548 281.902C153.346 281.75 153.119 281.636 152.868 281.559C152.62 281.482 152.356 281.444 152.076 281.444C151.571 281.444 151.119 281.571 150.719 281.825C150.323 282.078 150.009 282.451 149.778 282.942C149.549 283.432 149.435 284.032 149.435 284.739C149.435 285.452 149.549 286.055 149.778 286.545C150.009 287.036 150.324 287.407 150.724 287.658C151.123 287.909 151.572 288.035 152.072 288.035C152.348 288.035 152.611 287.998 152.859 287.923C153.11 287.846 153.337 287.734 153.54 287.585C153.742 287.437 153.913 287.256 154.053 287.042C154.196 286.825 154.294 286.577 154.349 286.297L155.684 286.301C155.613 286.732 155.474 287.129 155.269 287.491C155.066 287.851 154.805 288.162 154.486 288.424C154.169 288.684 153.806 288.885 153.398 289.028C152.99 289.17 152.545 289.242 152.063 289.242C151.304 289.242 150.628 289.062 150.034 288.702C149.441 288.34 148.973 287.822 148.631 287.149C148.291 286.475 148.121 285.672 148.121 284.739C148.121 283.803 148.293 283 148.635 282.33C148.977 281.656 149.445 281.14 150.039 280.78C150.632 280.418 151.307 280.237 152.063 280.237C152.528 280.237 152.962 280.304 153.364 280.438C153.769 280.569 154.133 280.763 154.456 281.02C154.778 281.274 155.045 281.585 155.256 281.953C155.467 282.318 155.61 282.736 155.684 283.207ZM159.933 289.254C159.316 289.254 158.779 289.113 158.319 288.831C157.86 288.548 157.503 288.153 157.249 287.645C156.995 287.137 156.868 286.544 156.868 285.865C156.868 285.183 156.995 284.587 157.249 284.076C157.503 283.565 157.86 283.168 158.319 282.886C158.779 282.603 159.316 282.462 159.933 282.462C160.549 282.462 161.087 282.603 161.546 282.886C162.006 283.168 162.362 283.565 162.616 284.076C162.87 284.587 162.997 285.183 162.997 285.865C162.997 286.544 162.87 287.137 162.616 287.645C162.362 288.153 162.006 288.548 161.546 288.831C161.087 289.113 160.549 289.254 159.933 289.254ZM159.937 288.18C160.337 288.18 160.668 288.075 160.93 287.863C161.193 287.652 161.387 287.371 161.512 287.02C161.64 286.669 161.705 286.283 161.705 285.86C161.705 285.441 161.64 285.056 161.512 284.705C161.387 284.351 161.193 284.067 160.93 283.853C160.668 283.639 160.337 283.532 159.937 283.532C159.535 283.532 159.201 283.639 158.936 283.853C158.673 284.067 158.478 284.351 158.349 284.705C158.224 285.056 158.161 285.441 158.161 285.86C158.161 286.283 158.224 286.669 158.349 287.02C158.478 287.371 158.673 287.652 158.936 287.863C159.201 288.075 159.535 288.18 159.937 288.18ZM168.59 286.395V282.548H169.874V289.122H168.616V287.983H168.547C168.396 288.334 168.153 288.627 167.82 288.861C167.489 289.092 167.076 289.207 166.583 289.207C166.16 289.207 165.787 289.115 165.461 288.929C165.139 288.741 164.885 288.463 164.7 288.095C164.517 287.727 164.426 287.271 164.426 286.729V282.548H165.705V286.575C165.705 287.023 165.829 287.38 166.078 287.645C166.326 287.911 166.648 288.043 167.045 288.043C167.285 288.043 167.523 287.983 167.76 287.863C167.999 287.744 168.198 287.562 168.355 287.32C168.514 287.077 168.593 286.769 168.59 286.395ZM172.873 285.219V289.122H171.593V282.548H172.822V283.618H172.903C173.054 283.27 173.291 282.99 173.613 282.779C173.939 282.568 174.348 282.462 174.842 282.462C175.29 282.462 175.682 282.556 176.019 282.745C176.355 282.93 176.617 283.207 176.802 283.575C176.987 283.943 177.08 284.398 177.08 284.94V289.122H175.8V285.094C175.8 284.618 175.676 284.246 175.428 283.977C175.18 283.706 174.839 283.571 174.405 283.571C174.109 283.571 173.845 283.635 173.613 283.763C173.385 283.892 173.204 284.08 173.07 284.328C172.939 284.574 172.873 284.87 172.873 285.219ZM181.865 282.548V283.575H178.274V282.548H181.865ZM179.237 280.973H180.517V287.192C180.517 287.44 180.554 287.627 180.628 287.752C180.702 287.875 180.798 287.959 180.915 288.005C181.035 288.048 181.165 288.069 181.304 288.069C181.407 288.069 181.497 288.062 181.574 288.048C181.651 288.033 181.711 288.022 181.754 288.013L181.985 289.07C181.911 289.099 181.805 289.127 181.668 289.156C181.531 289.187 181.36 289.205 181.155 289.207C180.818 289.213 180.504 289.153 180.213 289.028C179.922 288.902 179.687 288.708 179.507 288.446C179.327 288.183 179.237 287.853 179.237 287.457V280.973ZM183.281 289.122V282.548H184.56V289.122H183.281ZM183.927 281.534C183.704 281.534 183.513 281.459 183.353 281.311C183.196 281.16 183.118 280.98 183.118 280.772C183.118 280.561 183.196 280.381 183.353 280.232C183.513 280.081 183.704 280.006 183.927 280.006C184.149 280.006 184.339 280.081 184.496 280.232C184.656 280.381 184.736 280.561 184.736 280.772C184.736 280.98 184.656 281.16 184.496 281.311C184.339 281.459 184.149 281.534 183.927 281.534ZM187.562 285.219V289.122H186.282V282.548H187.51V283.618H187.592C187.743 283.27 187.98 282.99 188.302 282.779C188.627 282.568 189.037 282.462 189.53 282.462C189.978 282.462 190.371 282.556 190.707 282.745C191.044 282.93 191.305 283.207 191.491 283.575C191.676 283.943 191.769 284.398 191.769 284.94V289.122H190.489V285.094C190.489 284.618 190.365 284.246 190.117 283.977C189.868 283.706 189.528 283.571 189.094 283.571C188.797 283.571 188.533 283.635 188.302 283.763C188.074 283.892 187.893 284.08 187.759 284.328C187.627 284.574 187.562 284.87 187.562 285.219ZM196.241 291.724C195.719 291.724 195.27 291.655 194.893 291.519C194.519 291.382 194.214 291.2 193.977 290.975C193.74 290.75 193.563 290.503 193.446 290.235L194.546 289.781C194.623 289.906 194.726 290.039 194.855 290.179C194.986 290.322 195.163 290.443 195.385 290.543C195.611 290.643 195.9 290.692 196.254 290.692C196.739 290.692 197.14 290.574 197.457 290.337C197.773 290.103 197.932 289.73 197.932 289.216V287.923H197.85C197.773 288.063 197.662 288.219 197.517 288.39C197.374 288.561 197.177 288.709 196.926 288.835C196.675 288.961 196.348 289.023 195.946 289.023C195.427 289.023 194.959 288.902 194.542 288.66C194.128 288.414 193.8 288.053 193.558 287.577C193.318 287.097 193.198 286.508 193.198 285.809C193.198 285.11 193.317 284.511 193.553 284.012C193.793 283.512 194.121 283.13 194.538 282.865C194.954 282.596 195.427 282.462 195.954 282.462C196.363 282.462 196.692 282.531 196.943 282.668C197.194 282.802 197.39 282.959 197.529 283.138C197.672 283.318 197.782 283.477 197.859 283.614H197.953V282.548H199.207V289.267C199.207 289.832 199.076 290.296 198.813 290.658C198.551 291.021 198.196 291.289 197.748 291.463C197.303 291.637 196.8 291.724 196.241 291.724ZM196.228 287.962C196.596 287.962 196.907 287.876 197.161 287.705C197.418 287.531 197.612 287.283 197.743 286.96C197.878 286.635 197.945 286.246 197.945 285.792C197.945 285.35 197.879 284.96 197.748 284.624C197.617 284.287 197.424 284.024 197.17 283.836C196.916 283.645 196.602 283.549 196.228 283.549C195.843 283.549 195.522 283.649 195.265 283.849C195.009 284.046 194.815 284.314 194.683 284.654C194.555 284.993 194.491 285.373 194.491 285.792C194.491 286.223 194.556 286.601 194.688 286.926C194.819 287.251 195.013 287.505 195.27 287.688C195.529 287.871 195.849 287.962 196.228 287.962Z" fill="#111231"/>
<path d="M93.8126 352.739V344.948H96.6658C97.2187 344.948 97.6765 345.039 98.0392 345.222C98.4019 345.402 98.6733 345.647 98.8533 345.956C99.0334 346.263 99.1235 346.609 99.1235 346.995C99.1235 347.319 99.0639 347.593 98.9446 347.816C98.8254 348.037 98.6657 348.214 98.4653 348.349C98.2675 348.481 98.0494 348.577 97.811 348.638V348.714C98.0696 348.727 98.322 348.811 98.568 348.965C98.8166 349.117 99.022 349.334 99.1843 349.616C99.3466 349.897 99.4278 350.24 99.4278 350.643C99.4278 351.041 99.334 351.399 99.1463 351.716C98.9611 352.03 98.6745 352.28 98.2865 352.465C97.8985 352.648 97.4026 352.739 96.799 352.739H93.8126ZM94.9881 351.731H96.6849C97.2479 351.731 97.6512 351.622 97.8946 351.404C98.1381 351.186 98.2599 350.913 98.2599 350.586C98.2599 350.34 98.1977 350.114 98.0735 349.909C97.9492 349.703 97.7716 349.54 97.5408 349.418C97.3126 349.296 97.0412 349.235 96.7267 349.235H94.9881V351.731ZM94.9881 348.318H96.5631C96.8269 348.318 97.064 348.268 97.2745 348.166C97.4876 348.065 97.6562 347.923 97.7805 347.74C97.9073 347.555 97.9707 347.337 97.9707 347.086C97.9707 346.764 97.8579 346.494 97.6321 346.276C97.4064 346.057 97.0602 345.948 96.5936 345.948H94.9881V348.318ZM103.249 352.857C102.674 352.857 102.178 352.734 101.762 352.488C101.348 352.239 101.029 351.891 100.803 351.442C100.58 350.99 100.468 350.462 100.468 349.855C100.468 349.257 100.58 348.729 100.803 348.273C101.029 347.816 101.343 347.46 101.747 347.204C102.152 346.948 102.627 346.82 103.169 346.82C103.499 346.82 103.819 346.874 104.128 346.983C104.437 347.092 104.715 347.263 104.961 347.497C105.207 347.73 105.401 348.033 105.543 348.406C105.685 348.776 105.756 349.226 105.756 349.757V350.16H101.111V349.308H104.642C104.642 349.008 104.581 348.743 104.459 348.513C104.337 348.279 104.166 348.095 103.945 347.961C103.727 347.826 103.471 347.759 103.177 347.759C102.857 347.759 102.578 347.838 102.34 347.995C102.104 348.15 101.922 348.353 101.792 348.604C101.665 348.852 101.602 349.122 101.602 349.414V350.08C101.602 350.47 101.67 350.803 101.807 351.077C101.947 351.351 102.141 351.56 102.389 351.704C102.638 351.846 102.928 351.917 103.261 351.917C103.476 351.917 103.673 351.887 103.85 351.826C104.028 351.763 104.181 351.669 104.311 351.545C104.44 351.42 104.539 351.267 104.607 351.084L105.684 351.278C105.598 351.595 105.443 351.873 105.22 352.111C104.999 352.347 104.722 352.531 104.387 352.663C104.055 352.792 103.675 352.857 103.249 352.857ZM111.397 348.322L110.366 348.505C110.323 348.373 110.255 348.247 110.161 348.128C110.07 348.009 109.945 347.911 109.788 347.835C109.631 347.759 109.434 347.721 109.198 347.721C108.876 347.721 108.607 347.793 108.392 347.938C108.176 348.08 108.068 348.264 108.068 348.49C108.068 348.685 108.141 348.842 108.285 348.961C108.43 349.081 108.663 349.178 108.985 349.254L109.914 349.467C110.451 349.592 110.852 349.783 111.116 350.042C111.379 350.301 111.511 350.637 111.511 351.05C111.511 351.4 111.41 351.712 111.207 351.986C111.007 352.257 110.726 352.47 110.366 352.625C110.009 352.78 109.594 352.857 109.122 352.857C108.468 352.857 107.934 352.718 107.521 352.439C107.107 352.157 106.854 351.758 106.76 351.24L107.859 351.073C107.928 351.359 108.068 351.576 108.281 351.723C108.495 351.868 108.772 351.94 109.115 351.94C109.487 351.94 109.785 351.863 110.009 351.708C110.232 351.551 110.343 351.359 110.343 351.134C110.343 350.951 110.275 350.798 110.138 350.673C110.004 350.549 109.797 350.455 109.518 350.392L108.529 350.175C107.983 350.051 107.58 349.853 107.319 349.582C107.06 349.31 106.931 348.966 106.931 348.551C106.931 348.206 107.027 347.904 107.22 347.645C107.413 347.386 107.679 347.185 108.019 347.04C108.359 346.893 108.748 346.82 109.187 346.82C109.818 346.82 110.316 346.957 110.678 347.23C111.041 347.502 111.281 347.866 111.397 348.322ZM113.9 349.27V352.739H112.762V346.896H113.854V347.847H113.926C114.061 347.537 114.271 347.289 114.558 347.101C114.847 346.913 115.211 346.82 115.65 346.82C116.048 346.82 116.396 346.903 116.696 347.071C116.995 347.236 117.227 347.482 117.392 347.809C117.557 348.136 117.639 348.54 117.639 349.022V352.739H116.502V349.159C116.502 348.736 116.391 348.405 116.171 348.166C115.95 347.925 115.647 347.805 115.261 347.805C114.998 347.805 114.763 347.862 114.558 347.976C114.355 348.09 114.194 348.258 114.075 348.478C113.958 348.696 113.9 348.96 113.9 349.27ZM119.165 352.739V346.896H120.302V352.739H119.165ZM119.739 345.994C119.541 345.994 119.371 345.928 119.229 345.796C119.09 345.662 119.02 345.502 119.02 345.317C119.02 345.129 119.09 344.969 119.229 344.838C119.371 344.703 119.541 344.636 119.739 344.636C119.937 344.636 120.106 344.703 120.245 344.838C120.387 344.969 120.458 345.129 120.458 345.317C120.458 345.502 120.387 345.662 120.245 345.796C120.106 345.928 119.937 345.994 119.739 345.994ZM122.879 350.757L122.871 349.368H123.069L125.397 346.896H126.759L124.104 349.711H123.925L122.879 350.757ZM121.833 352.739V344.948H122.97V352.739H121.833ZM125.523 352.739L123.43 349.962L124.214 349.167L126.919 352.739H125.523ZM133.081 355.052C132.617 355.052 132.217 354.991 131.883 354.87C131.55 354.748 131.279 354.587 131.069 354.386C130.858 354.186 130.701 353.967 130.597 353.728L131.575 353.325C131.643 353.437 131.734 353.555 131.848 353.679C131.965 353.806 132.122 353.913 132.32 354.002C132.521 354.091 132.778 354.135 133.092 354.135C133.524 354.135 133.88 354.03 134.161 353.82C134.443 353.612 134.584 353.279 134.584 352.823V351.674H134.511C134.443 351.798 134.344 351.936 134.215 352.089C134.088 352.241 133.913 352.373 133.69 352.484C133.467 352.596 133.176 352.652 132.819 352.652C132.357 352.652 131.941 352.544 131.571 352.328C131.203 352.11 130.911 351.789 130.696 351.366C130.483 350.94 130.376 350.416 130.376 349.795C130.376 349.173 130.481 348.641 130.692 348.197C130.905 347.753 131.197 347.413 131.567 347.177C131.937 346.939 132.357 346.82 132.826 346.82C133.189 346.82 133.482 346.88 133.705 347.002C133.928 347.121 134.102 347.261 134.226 347.421C134.353 347.58 134.451 347.721 134.519 347.843H134.603V346.896H135.717V352.868C135.717 353.371 135.601 353.783 135.367 354.105C135.134 354.427 134.818 354.665 134.42 354.82C134.025 354.975 133.578 355.052 133.081 355.052ZM133.07 351.708C133.397 351.708 133.673 351.632 133.899 351.48C134.127 351.325 134.3 351.105 134.416 350.818C134.536 350.529 134.595 350.183 134.595 349.779C134.595 349.386 134.537 349.04 134.42 348.741C134.304 348.441 134.132 348.208 133.907 348.041C133.681 347.871 133.402 347.786 133.07 347.786C132.727 347.786 132.442 347.875 132.214 348.052C131.985 348.227 131.813 348.466 131.696 348.767C131.582 349.069 131.525 349.407 131.525 349.779C131.525 350.162 131.583 350.498 131.7 350.788C131.817 351.077 131.989 351.302 132.217 351.465C132.448 351.627 132.732 351.708 133.07 351.708ZM137.243 352.739V346.896H138.342V347.824H138.403C138.51 347.509 138.698 347.262 138.966 347.082C139.238 346.899 139.545 346.808 139.887 346.808C139.958 346.808 140.042 346.811 140.138 346.816C140.237 346.821 140.314 346.827 140.37 346.835V347.923C140.325 347.91 140.243 347.896 140.127 347.881C140.01 347.863 139.893 347.854 139.777 347.854C139.508 347.854 139.268 347.911 139.058 348.026C138.85 348.137 138.685 348.293 138.563 348.493C138.441 348.691 138.381 348.917 138.381 349.171V352.739H137.243ZM143.003 352.868C142.633 352.868 142.298 352.8 141.998 352.663C141.699 352.524 141.462 352.322 141.287 352.058C141.115 351.794 141.028 351.471 141.028 351.088C141.028 350.758 141.092 350.487 141.219 350.274C141.345 350.061 141.517 349.892 141.732 349.768C141.948 349.644 142.189 349.55 142.455 349.486C142.721 349.423 142.993 349.375 143.269 349.342C143.619 349.301 143.903 349.268 144.121 349.243C144.339 349.215 144.498 349.171 144.597 349.11C144.696 349.049 144.745 348.95 144.745 348.813V348.786C144.745 348.454 144.651 348.197 144.464 348.014C144.279 347.832 144.002 347.74 143.634 347.74C143.251 347.74 142.95 347.825 142.729 347.995C142.511 348.163 142.36 348.349 142.276 348.554L141.207 348.311C141.334 347.956 141.519 347.669 141.763 347.451C142.009 347.23 142.291 347.071 142.611 346.972C142.931 346.87 143.267 346.82 143.619 346.82C143.852 346.82 144.1 346.847 144.361 346.903C144.625 346.957 144.871 347.055 145.099 347.2C145.33 347.345 145.519 347.551 145.666 347.82C145.813 348.086 145.886 348.433 145.886 348.859V352.739H144.776V351.94H144.73C144.656 352.087 144.546 352.232 144.399 352.374C144.252 352.516 144.063 352.634 143.832 352.728C143.601 352.822 143.325 352.868 143.003 352.868ZM143.25 351.955C143.565 351.955 143.833 351.893 144.057 351.769C144.282 351.645 144.454 351.482 144.57 351.282C144.689 351.079 144.749 350.862 144.749 350.632V349.878C144.708 349.919 144.63 349.957 144.513 349.992C144.399 350.025 144.268 350.055 144.121 350.08C143.974 350.103 143.831 350.124 143.691 350.145C143.552 350.162 143.435 350.178 143.341 350.19C143.121 350.218 142.919 350.265 142.736 350.331C142.556 350.397 142.412 350.492 142.303 350.616C142.196 350.738 142.143 350.9 142.143 351.103C142.143 351.385 142.247 351.598 142.455 351.742C142.663 351.884 142.928 351.955 143.25 351.955ZM149.589 352.853C149.117 352.853 148.696 352.733 148.326 352.492C147.958 352.248 147.669 351.902 147.459 351.453C147.251 351.002 147.147 350.46 147.147 349.829C147.147 349.197 147.252 348.657 147.462 348.208C147.675 347.759 147.967 347.416 148.337 347.177C148.708 346.939 149.127 346.82 149.597 346.82C149.959 346.82 150.251 346.88 150.472 347.002C150.695 347.121 150.867 347.261 150.989 347.421C151.113 347.58 151.21 347.721 151.278 347.843H151.347V344.948H152.484V352.739H151.373V351.83H151.278C151.21 351.954 151.111 352.096 150.981 352.256C150.855 352.416 150.68 352.555 150.456 352.674C150.233 352.794 149.944 352.853 149.589 352.853ZM149.84 351.883C150.167 351.883 150.444 351.797 150.67 351.624C150.898 351.449 151.07 351.207 151.187 350.898C151.306 350.588 151.366 350.228 151.366 349.817C151.366 349.412 151.307 349.057 151.191 348.752C151.074 348.448 150.903 348.211 150.677 348.041C150.451 347.871 150.172 347.786 149.84 347.786C149.498 347.786 149.212 347.875 148.984 348.052C148.756 348.23 148.583 348.472 148.467 348.779C148.353 349.086 148.296 349.432 148.296 349.817C148.296 350.208 148.354 350.559 148.471 350.871C148.587 351.183 148.76 351.43 148.988 351.613C149.219 351.793 149.503 351.883 149.84 351.883ZM157.809 350.316V346.896H158.951V352.739H157.832V351.727H157.771C157.637 352.039 157.421 352.299 157.125 352.507C156.83 352.713 156.464 352.815 156.025 352.815C155.65 352.815 155.317 352.733 155.028 352.568C154.742 352.401 154.516 352.153 154.351 351.826C154.189 351.499 154.108 351.094 154.108 350.613V346.896H155.245V350.476C155.245 350.874 155.356 351.191 155.576 351.427C155.797 351.663 156.083 351.78 156.436 351.78C156.649 351.78 156.861 351.727 157.071 351.621C157.284 351.514 157.461 351.353 157.6 351.138C157.742 350.922 157.812 350.648 157.809 350.316ZM162.18 352.868C161.809 352.868 161.474 352.8 161.175 352.663C160.876 352.524 160.639 352.322 160.464 352.058C160.291 351.794 160.205 351.471 160.205 351.088C160.205 350.758 160.269 350.487 160.395 350.274C160.522 350.061 160.693 349.892 160.909 349.768C161.124 349.644 161.365 349.55 161.632 349.486C161.898 349.423 162.169 349.375 162.446 349.342C162.796 349.301 163.08 349.268 163.298 349.243C163.516 349.215 163.675 349.171 163.774 349.11C163.872 349.049 163.922 348.95 163.922 348.813V348.786C163.922 348.454 163.828 348.197 163.64 348.014C163.455 347.832 163.179 347.74 162.811 347.74C162.428 347.74 162.126 347.825 161.906 347.995C161.688 348.163 161.537 348.349 161.453 348.554L160.384 348.311C160.511 347.956 160.696 347.669 160.939 347.451C161.185 347.23 161.468 347.071 161.788 346.972C162.107 346.87 162.443 346.82 162.796 346.82C163.029 346.82 163.276 346.847 163.538 346.903C163.801 346.957 164.047 347.055 164.276 347.2C164.507 347.345 164.696 347.551 164.843 347.82C164.99 348.086 165.063 348.433 165.063 348.859V352.739H163.952V351.94H163.907C163.833 352.087 163.723 352.232 163.576 352.374C163.429 352.516 163.24 352.634 163.009 352.728C162.778 352.822 162.502 352.868 162.18 352.868ZM162.427 351.955C162.741 351.955 163.01 351.893 163.233 351.769C163.459 351.645 163.63 351.482 163.747 351.282C163.866 351.079 163.926 350.862 163.926 350.632V349.878C163.885 349.919 163.807 349.957 163.69 349.992C163.576 350.025 163.445 350.055 163.298 350.08C163.151 350.103 163.008 350.124 162.868 350.145C162.729 350.162 162.612 350.178 162.518 350.19C162.298 350.218 162.096 350.265 161.913 350.331C161.733 350.397 161.589 350.492 161.48 350.616C161.373 350.738 161.32 350.9 161.32 351.103C161.32 351.385 161.424 351.598 161.632 351.742C161.84 351.884 162.105 351.955 162.427 351.955ZM169.306 346.896V347.809H166.114V346.896H169.306ZM166.97 345.496H168.108V351.023C168.108 351.244 168.141 351.41 168.207 351.522C168.273 351.631 168.358 351.706 168.461 351.746C168.568 351.784 168.683 351.803 168.808 351.803C168.899 351.803 168.979 351.797 169.047 351.784C169.116 351.772 169.169 351.761 169.207 351.754L169.413 352.693C169.347 352.719 169.253 352.744 169.131 352.77C169.009 352.797 168.857 352.813 168.675 352.815C168.375 352.82 168.096 352.767 167.838 352.655C167.579 352.544 167.37 352.371 167.21 352.138C167.05 351.905 166.97 351.612 166.97 351.259V345.496ZM170.564 352.739V346.896H171.702V352.739H170.564ZM171.139 345.994C170.941 345.994 170.771 345.928 170.629 345.796C170.49 345.662 170.42 345.502 170.42 345.317C170.42 345.129 170.49 344.969 170.629 344.838C170.771 344.703 170.941 344.636 171.139 344.636C171.337 344.636 171.505 344.703 171.645 344.838C171.787 344.969 171.858 345.129 171.858 345.317C171.858 345.502 171.787 345.662 171.645 345.796C171.505 345.928 171.337 345.994 171.139 345.994ZM175.694 352.857C175.146 352.857 174.668 352.732 174.259 352.48C173.851 352.229 173.534 351.878 173.308 351.427C173.083 350.975 172.97 350.448 172.97 349.844C172.97 349.238 173.083 348.708 173.308 348.254C173.534 347.8 173.851 347.447 174.259 347.196C174.668 346.945 175.146 346.82 175.694 346.82C176.241 346.82 176.719 346.945 177.128 347.196C177.536 347.447 177.853 347.8 178.079 348.254C178.305 348.708 178.417 349.238 178.417 349.844C178.417 350.448 178.305 350.975 178.079 351.427C177.853 351.878 177.536 352.229 177.128 352.48C176.719 352.732 176.241 352.857 175.694 352.857ZM175.697 351.902C176.052 351.902 176.347 351.808 176.58 351.621C176.813 351.433 176.986 351.183 177.097 350.871C177.211 350.559 177.269 350.216 177.269 349.84C177.269 349.467 177.211 349.125 177.097 348.813C176.986 348.499 176.813 348.246 176.58 348.056C176.347 347.866 176.052 347.771 175.697 347.771C175.34 347.771 175.043 347.866 174.807 348.056C174.574 348.246 174.4 348.499 174.286 348.813C174.174 349.125 174.119 349.467 174.119 349.84C174.119 350.216 174.174 350.559 174.286 350.871C174.4 351.183 174.574 351.433 174.807 351.621C175.043 351.808 175.34 351.902 175.697 351.902ZM180.825 349.27V352.739H179.687V346.896H180.779V347.847H180.851C180.986 347.537 181.196 347.289 181.483 347.101C181.772 346.913 182.136 346.82 182.575 346.82C182.973 346.82 183.322 346.903 183.621 347.071C183.92 347.236 184.152 347.482 184.317 347.809C184.482 348.136 184.564 348.54 184.564 349.022V352.739H183.427V349.159C183.427 348.736 183.317 348.405 183.096 348.166C182.875 347.925 182.572 347.805 182.187 347.805C181.923 347.805 181.688 347.862 181.483 347.976C181.28 348.09 181.119 348.258 181 348.478C180.883 348.696 180.825 348.96 180.825 349.27ZM190.469 348.322L189.438 348.505C189.395 348.373 189.326 348.247 189.232 348.128C189.141 348.009 189.017 347.911 188.859 347.835C188.702 347.759 188.506 347.721 188.27 347.721C187.948 347.721 187.679 347.793 187.463 347.938C187.248 348.08 187.14 348.264 187.14 348.49C187.14 348.685 187.212 348.842 187.357 348.961C187.501 349.081 187.735 349.178 188.057 349.254L188.985 349.467C189.523 349.592 189.923 349.783 190.187 350.042C190.451 350.301 190.583 350.637 190.583 351.05C190.583 351.4 190.481 351.712 190.278 351.986C190.078 352.257 189.798 352.47 189.438 352.625C189.08 352.78 188.665 352.857 188.194 352.857C187.539 352.857 187.005 352.718 186.592 352.439C186.179 352.157 185.925 351.758 185.831 351.24L186.931 351.073C186.999 351.359 187.14 351.576 187.353 351.723C187.566 351.868 187.844 351.94 188.186 351.94C188.559 351.94 188.857 351.863 189.08 351.708C189.303 351.551 189.415 351.359 189.415 351.134C189.415 350.951 189.346 350.798 189.209 350.673C189.075 350.549 188.868 350.455 188.589 350.392L187.6 350.175C187.055 350.051 186.652 349.853 186.39 349.582C186.132 349.31 186.002 348.966 186.002 348.551C186.002 348.206 186.099 347.904 186.292 347.645C186.484 347.386 186.751 347.185 187.09 347.04C187.43 346.893 187.82 346.82 188.258 346.82C188.89 346.82 189.387 346.957 189.75 347.23C190.112 347.502 190.352 347.866 190.469 348.322Z" fill="#297CFD"/>
<path d="M225.219 344.948V352.739H224.039V346.127H223.994L222.129 347.345V346.218L224.074 344.948H225.219ZM229.898 352.846C229.421 352.846 228.993 352.754 228.612 352.572C228.234 352.387 227.932 352.133 227.707 351.811C227.481 351.489 227.36 351.121 227.345 350.708H228.487C228.514 351.042 228.663 351.318 228.932 351.533C229.201 351.749 229.523 351.857 229.898 351.857C230.197 351.857 230.462 351.788 230.693 351.651C230.926 351.512 231.109 351.32 231.241 351.077C231.375 350.833 231.443 350.555 231.443 350.243C231.443 349.926 231.374 349.644 231.237 349.395C231.1 349.147 230.911 348.951 230.67 348.809C230.432 348.667 230.158 348.595 229.849 348.592C229.613 348.592 229.376 348.633 229.137 348.714C228.899 348.795 228.706 348.902 228.559 349.034L227.482 348.874L227.92 344.948H232.203V345.956H228.897L228.65 348.136H228.696C228.848 347.989 229.05 347.866 229.301 347.767C229.554 347.668 229.826 347.618 230.115 347.618C230.589 347.618 231.011 347.731 231.382 347.957C231.754 348.183 232.047 348.491 232.26 348.882C232.476 349.27 232.583 349.716 232.58 350.221C232.583 350.725 232.468 351.176 232.238 351.571C232.009 351.967 231.692 352.279 231.287 352.507C230.883 352.733 230.42 352.846 229.898 352.846ZM234.452 352.811C234.244 352.811 234.065 352.738 233.915 352.591C233.766 352.441 233.691 352.261 233.691 352.051C233.691 351.843 233.766 351.665 233.915 351.518C234.065 351.368 234.244 351.293 234.452 351.293C234.66 351.293 234.839 351.368 234.988 351.518C235.138 351.665 235.213 351.843 235.213 352.051C235.213 352.19 235.177 352.318 235.106 352.435C235.038 352.549 234.946 352.64 234.832 352.709C234.718 352.777 234.591 352.811 234.452 352.811ZM239.151 352.846C238.629 352.846 238.162 352.756 237.751 352.576C237.343 352.395 237.019 352.146 236.781 351.826C236.545 351.504 236.418 351.131 236.401 350.708H237.595C237.61 350.938 237.688 351.139 237.827 351.309C237.969 351.476 238.154 351.605 238.383 351.697C238.611 351.788 238.864 351.834 239.143 351.834C239.45 351.834 239.722 351.78 239.958 351.674C240.196 351.567 240.382 351.419 240.517 351.229C240.651 351.036 240.718 350.814 240.718 350.563C240.718 350.302 240.651 350.072 240.517 349.874C240.385 349.674 240.191 349.517 239.935 349.403C239.681 349.289 239.374 349.232 239.014 349.232H238.356V348.273H239.014C239.303 348.273 239.557 348.221 239.775 348.117C239.996 348.013 240.168 347.868 240.292 347.683C240.417 347.495 240.479 347.276 240.479 347.025C240.479 346.784 240.424 346.575 240.315 346.397C240.209 346.217 240.057 346.076 239.859 345.975C239.663 345.874 239.433 345.823 239.166 345.823C238.913 345.823 238.676 345.87 238.455 345.964C238.237 346.055 238.059 346.187 237.922 346.359C237.785 346.529 237.712 346.733 237.702 346.972H236.564C236.577 346.551 236.701 346.18 236.937 345.861C237.175 345.541 237.49 345.291 237.88 345.111C238.271 344.931 238.705 344.841 239.182 344.841C239.681 344.841 240.112 344.939 240.475 345.134C240.84 345.327 241.122 345.584 241.32 345.907C241.52 346.229 241.619 346.581 241.616 346.964C241.619 347.4 241.497 347.771 241.251 348.075C241.008 348.379 240.683 348.584 240.277 348.688V348.748C240.795 348.827 241.195 349.032 241.479 349.365C241.766 349.697 241.908 350.109 241.905 350.601C241.908 351.03 241.789 351.414 241.548 351.754C241.309 352.094 240.984 352.361 240.57 352.557C240.157 352.749 239.684 352.846 239.151 352.846ZM245.915 352.846C245.438 352.846 245.01 352.754 244.629 352.572C244.251 352.387 243.95 352.133 243.724 351.811C243.498 351.489 243.378 351.121 243.363 350.708H244.504C244.532 351.042 244.68 351.318 244.949 351.533C245.218 351.749 245.54 351.857 245.915 351.857C246.214 351.857 246.48 351.788 246.71 351.651C246.944 351.512 247.126 351.32 247.258 351.077C247.393 350.833 247.46 350.555 247.46 350.243C247.46 349.926 247.391 349.644 247.254 349.395C247.117 349.147 246.928 348.951 246.688 348.809C246.449 348.667 246.175 348.595 245.866 348.592C245.63 348.592 245.393 348.633 245.154 348.714C244.916 348.795 244.723 348.902 244.576 349.034L243.499 348.874L243.937 344.948H248.221V345.956H244.915L244.667 348.136H244.713C244.865 347.989 245.067 347.866 245.318 347.767C245.572 347.668 245.843 347.618 246.132 347.618C246.606 347.618 247.029 347.731 247.399 347.957C247.772 348.183 248.065 348.491 248.278 348.882C248.493 349.27 248.6 349.716 248.597 350.221C248.6 350.725 248.486 351.176 248.255 351.571C248.027 351.967 247.71 352.279 247.304 352.507C246.901 352.733 246.438 352.846 245.915 352.846ZM254.054 351.278V350.867C254.054 350.573 254.115 350.304 254.236 350.061C254.361 349.815 254.541 349.618 254.776 349.471C255.015 349.322 255.303 349.247 255.64 349.247C255.985 349.247 256.274 349.32 256.507 349.467C256.741 349.614 256.917 349.811 257.036 350.057C257.158 350.303 257.219 350.573 257.219 350.867V351.278C257.219 351.572 257.158 351.843 257.036 352.089C256.915 352.332 256.736 352.529 256.5 352.678C256.267 352.825 255.98 352.899 255.64 352.899C255.298 352.899 255.009 352.825 254.773 352.678C254.537 352.529 254.358 352.332 254.236 352.089C254.115 351.843 254.054 351.572 254.054 351.278ZM254.94 350.867V351.278C254.94 351.496 254.992 351.694 255.096 351.872C255.2 352.049 255.381 352.138 255.64 352.138C255.896 352.138 256.075 352.049 256.176 351.872C256.278 351.694 256.329 351.496 256.329 351.278V350.867C256.329 350.649 256.279 350.451 256.18 350.274C256.084 350.096 255.904 350.008 255.64 350.008C255.386 350.008 255.206 350.096 255.1 350.274C254.993 350.451 254.94 350.649 254.94 350.867ZM250.135 346.82V346.409C250.135 346.114 250.196 345.844 250.318 345.598C250.442 345.352 250.622 345.156 250.858 345.009C251.096 344.862 251.384 344.788 251.722 344.788C252.067 344.788 252.356 344.862 252.589 345.009C252.822 345.156 252.999 345.352 253.118 345.598C253.237 345.844 253.297 346.114 253.297 346.409V346.82C253.297 347.114 253.236 347.384 253.114 347.63C252.995 347.873 252.817 348.07 252.581 348.22C252.348 348.367 252.061 348.44 251.722 348.44C251.377 348.44 251.086 348.367 250.85 348.22C250.617 348.07 250.44 347.873 250.318 347.63C250.196 347.384 250.135 347.114 250.135 346.82ZM251.025 346.409V346.82C251.025 347.038 251.076 347.236 251.178 347.413C251.282 347.591 251.463 347.679 251.722 347.679C251.975 347.679 252.153 347.591 252.254 347.413C252.358 347.236 252.41 347.038 252.41 346.82V346.409C252.41 346.191 252.361 345.993 252.262 345.815C252.163 345.638 251.983 345.549 251.722 345.549C251.468 345.549 251.288 345.638 251.181 345.815C251.077 345.993 251.025 346.191 251.025 346.409ZM250.497 352.739L255.853 344.948H256.762L251.406 352.739H250.497ZM261.841 344.583L259.33 353.911H258.315L260.825 344.583H261.841ZM263.526 354.93C263.357 354.93 263.202 354.916 263.062 354.889C262.923 354.863 262.819 354.835 262.75 354.805L263.024 353.873C263.232 353.929 263.417 353.953 263.58 353.945C263.742 353.938 263.885 353.877 264.01 353.763C264.136 353.648 264.248 353.462 264.344 353.203L264.485 352.815L262.347 346.896H263.565L265.044 351.43H265.105L266.585 346.896H267.806L265.398 353.519C265.287 353.823 265.145 354.081 264.972 354.291C264.8 354.504 264.594 354.664 264.356 354.771C264.117 354.877 263.841 354.93 263.526 354.93ZM268.875 352.739V346.896H269.975V347.824H270.036C270.142 347.509 270.33 347.262 270.599 347.082C270.87 346.899 271.177 346.808 271.519 346.808C271.59 346.808 271.674 346.811 271.771 346.816C271.869 346.821 271.947 346.827 272.003 346.835V347.923C271.957 347.91 271.876 347.896 271.759 347.881C271.642 347.863 271.526 347.854 271.409 347.854C271.14 347.854 270.901 347.911 270.69 348.026C270.482 348.137 270.317 348.293 270.196 348.493C270.074 348.691 270.013 348.917 270.013 349.171V352.739H268.875Z" fill="#297CFD"/>
<path d="M157.514 302.391V321.87H153.986V305.825H153.872L149.316 308.735V305.501L154.157 302.391H157.514ZM169.66 322.24C168.094 322.24 166.75 321.844 165.627 321.052C164.511 320.253 163.652 319.102 163.05 317.599C162.454 316.09 162.156 314.274 162.156 312.149C162.162 310.025 162.463 308.218 163.059 306.728C163.662 305.232 164.521 304.091 165.637 303.304C166.759 302.518 168.1 302.125 169.66 302.125C171.22 302.125 172.561 302.518 173.683 303.304C174.805 304.091 175.664 305.232 176.26 306.728C176.863 308.225 177.164 310.032 177.164 312.149C177.164 314.28 176.863 316.1 176.26 317.609C175.664 319.111 174.805 320.259 173.683 321.052C172.567 321.844 171.226 322.24 169.66 322.24ZM169.66 319.264C170.877 319.264 171.838 318.664 172.542 317.466C173.252 316.261 173.607 314.489 173.607 312.149C173.607 310.602 173.445 309.303 173.122 308.25C172.798 307.197 172.342 306.405 171.752 305.872C171.163 305.333 170.465 305.064 169.66 305.064C168.449 305.064 167.491 305.666 166.788 306.871C166.084 308.069 165.729 309.829 165.722 312.149C165.716 313.703 165.871 315.009 166.188 316.068C166.512 317.127 166.968 317.926 167.558 318.465C168.148 318.997 168.848 319.264 169.66 319.264ZM187.524 322.24C185.958 322.24 184.613 321.844 183.491 321.052C182.375 320.253 181.516 319.102 180.914 317.599C180.318 316.09 180.02 314.274 180.02 312.149C180.026 310.025 180.327 308.218 180.923 306.728C181.525 305.232 182.385 304.091 183.501 303.304C184.623 302.518 185.964 302.125 187.524 302.125C189.083 302.125 190.424 302.518 191.547 303.304C192.669 304.091 193.528 305.232 194.124 306.728C194.727 308.225 195.028 310.032 195.028 312.149C195.028 314.28 194.727 316.1 194.124 317.609C193.528 319.111 192.669 320.259 191.547 321.052C190.431 321.844 189.09 322.24 187.524 322.24ZM187.524 319.264C188.741 319.264 189.702 318.664 190.405 317.466C191.116 316.261 191.471 314.489 191.471 312.149C191.471 310.602 191.309 309.303 190.986 308.25C190.662 307.197 190.206 306.405 189.616 305.872C189.026 305.333 188.329 305.064 187.524 305.064C186.313 305.064 185.355 305.666 184.651 306.871C183.948 308.069 183.593 309.829 183.586 312.149C183.58 313.703 183.735 315.009 184.052 316.068C184.376 317.127 184.832 317.926 185.422 318.465C186.011 318.997 186.712 319.264 187.524 319.264ZM201.509 319.207L201.386 320.253C201.297 321.052 201.138 321.863 200.91 322.688C200.688 323.518 200.454 324.282 200.206 324.98C199.959 325.677 199.759 326.226 199.607 326.625H197.287C197.375 326.238 197.496 325.712 197.648 325.046C197.807 324.38 197.959 323.632 198.105 322.802C198.25 321.971 198.349 321.128 198.399 320.272L198.466 319.207H201.509ZM211.769 322.24C210.203 322.24 208.859 321.844 207.737 321.052C206.621 320.253 205.762 319.102 205.159 317.599C204.563 316.09 204.265 314.274 204.265 312.149C204.272 310.025 204.573 308.218 205.169 306.728C205.771 305.232 206.63 304.091 207.746 303.304C208.868 302.518 210.209 302.125 211.769 302.125C213.329 302.125 214.67 302.518 215.792 303.304C216.915 304.091 217.774 305.232 218.37 306.728C218.972 308.225 219.273 310.032 219.273 312.149C219.273 314.28 218.972 316.1 218.37 317.609C217.774 319.111 216.915 320.259 215.792 321.052C214.676 321.844 213.335 322.24 211.769 322.24ZM211.769 319.264C212.987 319.264 213.947 318.664 214.651 317.466C215.361 316.261 215.716 314.489 215.716 312.149C215.716 310.602 215.555 309.303 215.231 308.25C214.908 307.197 214.451 306.405 213.862 305.872C213.272 305.333 212.575 305.064 211.769 305.064C210.558 305.064 209.601 305.666 208.897 306.871C208.193 308.069 207.838 309.829 207.832 312.149C207.825 313.703 207.981 315.009 208.298 316.068C208.621 317.127 209.078 317.926 209.667 318.465C210.257 318.997 210.958 319.264 211.769 319.264ZM229.633 322.24C228.067 322.24 226.723 321.844 225.6 321.052C224.484 320.253 223.625 319.102 223.023 317.599C222.427 316.09 222.129 314.274 222.129 312.149C222.135 310.025 222.436 308.218 223.032 306.728C223.635 305.232 224.494 304.091 225.61 303.304C226.732 302.518 228.073 302.125 229.633 302.125C231.193 302.125 232.534 302.518 233.656 303.304C234.778 304.091 235.638 305.232 236.234 306.728C236.836 308.225 237.137 310.032 237.137 312.149C237.137 314.28 236.836 316.1 236.234 317.609C235.638 319.111 234.778 320.259 233.656 321.052C232.54 321.844 231.199 322.24 229.633 322.24ZM229.633 319.264C230.85 319.264 231.811 318.664 232.515 317.466C233.225 316.261 233.58 314.489 233.58 312.149C233.58 310.602 233.418 309.303 233.095 308.25C232.772 307.197 232.315 306.405 231.725 305.872C231.136 305.333 230.438 305.064 229.633 305.064C228.422 305.064 227.465 305.666 226.761 306.871C226.057 308.069 225.702 309.829 225.696 312.149C225.689 313.703 225.845 315.009 226.162 316.068C226.485 317.127 226.941 317.926 227.531 318.465C228.121 318.997 228.821 319.264 229.633 319.264ZM247.497 322.24C245.931 322.24 244.587 321.844 243.464 321.052C242.348 320.253 241.489 319.102 240.887 317.599C240.291 316.09 239.993 314.274 239.993 312.149C239.999 310.025 240.3 308.218 240.896 306.728C241.499 305.232 242.358 304.091 243.474 303.304C244.596 302.518 245.937 302.125 247.497 302.125C249.057 302.125 250.398 302.518 251.52 303.304C252.642 304.091 253.501 305.232 254.097 306.728C254.7 308.225 255.001 310.032 255.001 312.149C255.001 314.28 254.7 316.1 254.097 317.609C253.501 319.111 252.642 320.259 251.52 321.052C250.404 321.844 249.063 322.24 247.497 322.24ZM247.497 319.264C248.714 319.264 249.675 318.664 250.379 317.466C251.089 316.261 251.444 314.489 251.444 312.149C251.444 310.602 251.282 309.303 250.959 308.25C250.635 307.197 250.179 306.405 249.589 305.872C249 305.333 248.302 305.064 247.497 305.064C246.286 305.064 245.328 305.666 244.625 306.871C243.921 308.069 243.566 309.829 243.559 312.149C243.553 313.703 243.708 315.009 244.025 316.068C244.349 317.127 244.805 317.926 245.395 318.465C245.985 318.997 246.685 319.264 247.497 319.264ZM263.944 318.75V305.587H266.93V318.75H263.944ZM258.855 313.662V310.675H272.018V313.662H258.855Z" fill="#111231"/>
<circle cx="107.687" cy="303.904" r="21.4261" fill="#F9AE34"/>
<path d="M118.155 296.941C118.116 296.798 118.051 296.665 117.96 296.548C117.87 296.431 117.758 296.333 117.63 296.26L111.827 292.912C111.7 292.838 111.56 292.79 111.415 292.77C111.269 292.75 111.121 292.758 110.979 292.796C110.837 292.833 110.704 292.898 110.587 292.987C110.47 293.076 110.372 293.187 110.298 293.314L107.687 297.845L105.076 293.314C105.002 293.187 104.904 293.076 104.787 292.987C104.67 292.898 104.537 292.833 104.395 292.796C104.253 292.758 104.105 292.75 103.959 292.77C103.814 292.79 103.674 292.838 103.547 292.912L97.744 296.26C97.6159 296.333 97.5036 296.431 97.4136 296.548C97.3236 296.665 97.2576 296.798 97.2195 296.941C97.1456 297.224 97.1857 297.524 97.3311 297.778L101.795 305.4C101.297 306.312 101.022 307.329 100.991 308.368C100.989 309.382 101.216 310.383 101.657 311.296C102.097 312.208 102.739 313.009 103.534 313.638C104.329 314.267 105.257 314.707 106.247 314.925C107.237 315.143 108.263 315.133 109.249 314.897C110.234 314.66 111.153 314.203 111.937 313.56C112.72 312.916 113.347 312.104 113.77 311.183C114.194 310.262 114.403 309.257 114.381 308.243C114.36 307.23 114.108 306.235 113.646 305.333L117.998 297.789C118.079 297.665 118.135 297.526 118.162 297.381C118.189 297.235 118.186 297.086 118.155 296.941ZM99.8754 297.633L103.737 295.401L107.33 301.672C105.798 301.767 104.347 302.39 103.223 303.436L99.8754 297.633ZM107.687 312.832C106.503 312.832 105.368 312.362 104.531 311.524C103.694 310.687 103.223 309.552 103.223 308.368C103.223 307.184 103.694 306.049 104.531 305.212C105.368 304.375 106.503 303.904 107.687 303.904C108.871 303.904 110.006 304.375 110.843 305.212C111.681 306.049 112.151 307.184 112.151 308.368C112.151 309.552 111.681 310.687 110.843 311.524C110.006 312.362 108.871 312.832 107.687 312.832ZM112.151 303.402C111.545 302.849 110.841 302.414 110.075 302.119L108.982 300.077L111.682 295.401L115.543 297.633L112.151 303.402Z" fill="#FEFEFE"/>
<g filter="url(#filter0_d_3_54)">
<rect x="211" y="28.5652" width="178.043" height="205.435" rx="11.413" fill="white"/>
</g>
<path d="M230.717 48.7243V58.6848H229.214V48.7243H230.717ZM234.243 54.2493V58.6848H232.788V51.2144H234.184V52.4303H234.277C234.449 52.0347 234.718 51.717 235.084 51.4771C235.454 51.2371 235.919 51.1172 236.48 51.1172C236.989 51.1172 237.435 51.2242 237.817 51.4381C238.2 51.6489 238.497 51.9634 238.707 52.3817C238.918 52.7999 239.024 53.3171 239.024 53.9331V58.6848H237.569V54.1082C237.569 53.5667 237.428 53.1436 237.146 52.8388C236.864 52.5308 236.477 52.3768 235.984 52.3768C235.647 52.3768 235.347 52.4498 235.084 52.5957C234.825 52.7416 234.619 52.9556 234.466 53.2376C234.317 53.5165 234.243 53.8537 234.243 54.2493ZM244.12 58.8356C243.397 58.8356 242.775 58.6718 242.253 58.3443C241.734 58.0136 241.335 57.5581 241.056 56.9777C240.778 56.3973 240.638 55.7326 240.638 54.9837C240.638 54.2249 240.781 53.5554 241.066 52.975C241.352 52.3914 241.754 51.9358 242.272 51.6084C242.791 51.2809 243.402 51.1172 244.106 51.1172C244.673 51.1172 245.179 51.2225 245.623 51.4333C246.067 51.6408 246.426 51.9326 246.698 52.3087C246.974 52.6848 247.137 53.1242 247.189 53.6267H245.774C245.696 53.2766 245.518 52.975 245.239 52.7221C244.963 52.4692 244.594 52.3428 244.13 52.3428C243.725 52.3428 243.37 52.4498 243.065 52.6638C242.764 52.8745 242.528 53.176 242.36 53.5684C242.191 53.9574 242.107 54.4179 242.107 54.9496C242.107 55.4943 242.19 55.9645 242.355 56.36C242.52 56.7556 242.754 57.062 243.055 57.2792C243.36 57.4965 243.718 57.6051 244.13 57.6051C244.406 57.6051 244.655 57.5548 244.879 57.4543C245.106 57.3506 245.296 57.203 245.448 57.0117C245.604 56.8204 245.712 56.5902 245.774 56.3211H247.189C247.137 56.8042 246.98 57.2355 246.718 57.6148C246.455 57.9942 246.103 58.2925 245.662 58.5097C245.224 58.7269 244.711 58.8356 244.12 58.8356ZM248.744 58.6848V51.2144H250.15V52.4011H250.228C250.364 51.9991 250.604 51.6829 250.948 51.4527C251.295 51.2193 251.687 51.1026 252.125 51.1026C252.215 51.1026 252.322 51.1058 252.446 51.1123C252.572 51.1188 252.671 51.1269 252.742 51.1366V52.5276C252.684 52.5114 252.58 52.4935 252.431 52.4741C252.282 52.4514 252.133 52.44 251.984 52.44C251.64 52.44 251.333 52.513 251.064 52.6589C250.798 52.8016 250.588 53.001 250.432 53.2571C250.276 53.51 250.199 53.7986 250.199 54.1228V58.6848H248.744ZM256.953 58.8356C256.217 58.8356 255.583 58.6783 255.051 58.3638C254.523 58.046 254.114 57.6002 253.826 57.0263C253.54 56.4492 253.398 55.7732 253.398 54.9982C253.398 54.233 253.54 53.5586 253.826 52.975C254.114 52.3914 254.516 51.9358 255.032 51.6084C255.551 51.2809 256.157 51.1172 256.851 51.1172C257.272 51.1172 257.681 51.1869 258.076 51.3263C258.472 51.4657 258.827 51.6846 259.141 51.9829C259.456 52.2812 259.704 52.6686 259.886 53.1452C260.067 53.6186 260.158 54.1941 260.158 54.8718V55.3873H254.22V54.2979H258.733C258.733 53.9153 258.655 53.5765 258.499 53.2814C258.344 52.9831 258.125 52.7481 257.843 52.5762C257.564 52.4044 257.237 52.3184 256.86 52.3184C256.452 52.3184 256.095 52.419 255.79 52.62C255.489 52.8178 255.255 53.0772 255.09 53.3981C254.928 53.7159 254.847 54.0612 254.847 54.4341V55.2852C254.847 55.7845 254.934 56.2093 255.11 56.5594C255.288 56.9096 255.536 57.1771 255.854 57.3619C256.171 57.5435 256.543 57.6343 256.967 57.6343C257.243 57.6343 257.494 57.5954 257.721 57.5175C257.948 57.4365 258.144 57.3165 258.31 57.1576C258.475 56.9988 258.602 56.8026 258.689 56.5692L260.065 56.8172C259.955 57.2225 259.757 57.5775 259.472 57.8823C259.19 58.1838 258.835 58.4189 258.407 58.5875C257.982 58.7529 257.498 58.8356 256.953 58.8356ZM263.945 58.8501C263.472 58.8501 263.044 58.7626 262.661 58.5875C262.279 58.4092 261.976 58.1514 261.752 57.8142C261.531 57.477 261.421 57.0636 261.421 56.574C261.421 56.1525 261.502 55.8056 261.664 55.5332C261.826 55.2609 262.045 55.0453 262.321 54.8864C262.597 54.7275 262.905 54.6075 263.245 54.5265C263.585 54.4454 263.932 54.3838 264.286 54.3417C264.733 54.2898 265.096 54.2476 265.375 54.2152C265.654 54.1795 265.857 54.1228 265.983 54.045C266.11 53.9672 266.173 53.8407 266.173 53.6656V53.6316C266.173 53.2068 266.053 52.8777 265.813 52.6443C265.576 52.4109 265.223 52.2941 264.753 52.2941C264.263 52.2941 263.877 52.4027 263.595 52.62C263.316 52.834 263.123 53.0723 263.016 53.3349L261.65 53.0237C261.812 52.5697 262.049 52.2033 262.36 51.9245C262.674 51.6424 263.036 51.4381 263.444 51.3117C263.853 51.182 264.283 51.1172 264.733 51.1172C265.032 51.1172 265.348 51.1528 265.682 51.2242C266.019 51.2922 266.333 51.4187 266.625 51.6035C266.92 51.7883 267.162 52.0526 267.35 52.3963C267.538 52.7367 267.632 53.1793 267.632 53.724V58.6848H266.212V57.6634H266.153C266.059 57.8515 265.918 58.0363 265.73 58.2179C265.542 58.3995 265.301 58.5502 265.006 58.6702C264.711 58.7902 264.357 58.8501 263.945 58.8501ZM264.261 57.6829C264.664 57.6829 265.007 57.6035 265.293 57.4446C265.581 57.2857 265.8 57.0782 265.949 56.8221C266.102 56.5627 266.178 56.2855 266.178 55.9904V55.0274C266.126 55.0793 266.025 55.1279 265.876 55.1733C265.73 55.2155 265.563 55.2528 265.375 55.2852C265.187 55.3144 265.004 55.3419 264.826 55.3679C264.647 55.3906 264.498 55.41 264.378 55.4262C264.096 55.4619 263.838 55.5219 263.605 55.6062C263.375 55.6905 263.19 55.8121 263.05 55.9709C262.914 56.1266 262.846 56.3341 262.846 56.5935C262.846 56.9534 262.979 57.2257 263.245 57.4105C263.511 57.5921 263.85 57.6829 264.261 57.6829ZM275.167 53.0382L273.849 53.2717C273.794 53.1031 273.706 52.9426 273.586 52.7902C273.469 52.6378 273.31 52.513 273.109 52.4157C272.908 52.3184 272.657 52.2698 272.356 52.2698C271.944 52.2698 271.6 52.3622 271.325 52.547C271.049 52.7286 270.911 52.9637 270.911 53.2522C270.911 53.5019 271.004 53.7029 271.188 53.8553C271.373 54.0077 271.671 54.1325 272.083 54.2298L273.27 54.5022C273.957 54.661 274.47 54.9058 274.807 55.2366C275.144 55.5673 275.313 55.9969 275.313 56.5254C275.313 56.9728 275.183 57.3716 274.924 57.7218C274.667 58.0687 274.309 58.3411 273.849 58.5389C273.392 58.7367 272.861 58.8356 272.258 58.8356C271.422 58.8356 270.739 58.6572 270.211 58.3006C269.682 57.9407 269.358 57.43 269.238 56.7686L270.644 56.5546C270.731 56.9209 270.911 57.1982 271.183 57.3862C271.456 57.571 271.811 57.6634 272.249 57.6634C272.725 57.6634 273.106 57.5646 273.392 57.3668C273.677 57.1657 273.82 56.9209 273.82 56.6324C273.82 56.3989 273.732 56.2028 273.557 56.0439C273.385 55.885 273.121 55.7651 272.764 55.684L271.5 55.4068C270.803 55.2479 270.287 54.995 269.953 54.6481C269.622 54.3011 269.457 53.8618 269.457 53.3301C269.457 52.8891 269.58 52.5033 269.827 52.1725C270.073 51.8418 270.413 51.5841 270.848 51.3992C271.282 51.2112 271.78 51.1172 272.341 51.1172C273.148 51.1172 273.784 51.2922 274.247 51.6424C274.711 51.9893 275.018 52.4546 275.167 53.0382ZM280.131 58.8356C279.395 58.8356 278.761 58.6783 278.229 58.3638C277.701 58.046 277.292 57.6002 277.004 57.0263C276.719 56.4492 276.576 55.7732 276.576 54.9982C276.576 54.233 276.719 53.5586 277.004 52.975C277.292 52.3914 277.695 51.9358 278.21 51.6084C278.729 51.2809 279.335 51.1172 280.029 51.1172C280.451 51.1172 280.859 51.1869 281.255 51.3263C281.65 51.4657 282.005 51.6846 282.32 51.9829C282.634 52.2812 282.882 52.6686 283.064 53.1452C283.245 53.6186 283.336 54.1941 283.336 54.8718V55.3873H277.398V54.2979H281.911C281.911 53.9153 281.833 53.5765 281.678 53.2814C281.522 52.9831 281.303 52.7481 281.021 52.5762C280.742 52.4044 280.415 52.3184 280.039 52.3184C279.63 52.3184 279.274 52.419 278.969 52.62C278.667 52.8178 278.434 53.0772 278.268 53.3981C278.106 53.7159 278.025 54.0612 278.025 54.4341V55.2852C278.025 55.7845 278.113 56.2093 278.288 56.5594C278.466 56.9096 278.714 57.1771 279.032 57.3619C279.35 57.5435 279.721 57.6343 280.146 57.6343C280.421 57.6343 280.673 57.5954 280.9 57.5175C281.127 57.4365 281.323 57.3165 281.488 57.1576C281.653 56.9988 281.78 56.8026 281.867 56.5692L283.244 56.8172C283.134 57.2225 282.936 57.5775 282.65 57.8823C282.368 58.1838 282.013 58.4189 281.585 58.5875C281.161 58.7529 280.676 58.8356 280.131 58.8356ZM289.532 58.6848H287.937L291.521 48.7243H293.258L296.842 58.6848H295.247L292.431 50.5335H292.353L289.532 58.6848ZM289.8 54.7842H294.975V56.0488H289.8V54.7842ZM302.896 55.5867V51.2144H304.355V58.6848H302.925V57.3911H302.847C302.676 57.7899 302.4 58.1222 302.021 58.3881C301.644 58.6507 301.176 58.7821 300.615 58.7821C300.135 58.7821 299.71 58.6767 299.341 58.4659C298.974 58.2519 298.686 57.9358 298.475 57.5175C298.268 57.0993 298.164 56.5821 298.164 55.9661V51.2144H299.618V55.791C299.618 56.3 299.759 56.7053 300.041 57.0069C300.323 57.3084 300.69 57.4592 301.14 57.4592C301.413 57.4592 301.683 57.3911 301.952 57.2549C302.225 57.1187 302.45 56.9128 302.629 56.6372C302.81 56.3616 302.899 56.0115 302.896 55.5867ZM309.106 58.8307C308.502 58.8307 307.964 58.6767 307.491 58.3687C307.021 58.0574 306.651 57.6148 306.382 57.0409C306.116 56.4638 305.983 55.7715 305.983 54.9642C305.983 54.1569 306.118 53.4662 306.387 52.8923C306.659 52.3184 307.032 51.8791 307.505 51.5743C307.979 51.2695 308.515 51.1172 309.115 51.1172C309.579 51.1172 309.952 51.195 310.234 51.3506C310.519 51.503 310.74 51.6813 310.895 51.8856C311.054 52.0899 311.177 52.2698 311.265 52.4254H311.352V48.7243H312.807V58.6848H311.386V57.5224H311.265C311.177 57.6813 311.051 57.8629 310.886 58.0671C310.723 58.2714 310.5 58.4497 310.214 58.6021C309.929 58.7545 309.559 58.8307 309.106 58.8307ZM309.426 57.5905C309.845 57.5905 310.198 57.4803 310.487 57.2598C310.779 57.0361 310.999 56.7264 311.148 56.3308C311.301 55.9353 311.377 55.4749 311.377 54.9496C311.377 54.4308 311.302 53.9769 311.153 53.5878C311.004 53.1987 310.785 52.8956 310.496 52.6783C310.208 52.4611 309.851 52.3525 309.426 52.3525C308.989 52.3525 308.624 52.466 308.332 52.6929C308.04 52.9199 307.82 53.2295 307.671 53.6219C307.525 54.0142 307.452 54.4568 307.452 54.9496C307.452 55.4489 307.526 55.898 307.676 56.2968C307.825 56.6956 308.045 57.0117 308.337 57.2452C308.632 57.4754 308.995 57.5905 309.426 57.5905ZM314.882 58.6848V51.2144H316.336V58.6848H314.882ZM315.617 50.0618C315.364 50.0618 315.146 49.9775 314.965 49.8089C314.786 49.637 314.697 49.4328 314.697 49.1961C314.697 48.9561 314.786 48.7519 314.965 48.5833C315.146 48.4114 315.364 48.3255 315.617 48.3255C315.869 48.3255 316.085 48.4114 316.263 48.5833C316.445 48.7519 316.536 48.9561 316.536 49.1961C316.536 49.4328 316.445 49.637 316.263 49.8089C316.085 49.9775 315.869 50.0618 315.617 50.0618ZM321.512 58.8356C320.776 58.8356 320.142 58.6783 319.611 58.3638C319.082 58.046 318.674 57.6002 318.385 57.0263C318.1 56.4492 317.957 55.7732 317.957 54.9982C317.957 54.233 318.1 53.5586 318.385 52.975C318.674 52.3914 319.076 51.9358 319.591 51.6084C320.11 51.2809 320.716 51.1172 321.41 51.1172C321.832 51.1172 322.24 51.1869 322.636 51.3263C323.031 51.4657 323.386 51.6846 323.701 51.9829C324.015 52.2812 324.263 52.6686 324.445 53.1452C324.627 53.6186 324.717 54.1941 324.717 54.8718V55.3873H318.779V54.2979H323.292C323.292 53.9153 323.215 53.5765 323.059 53.2814C322.903 52.9831 322.684 52.7481 322.402 52.5762C322.124 52.4044 321.796 52.3184 321.42 52.3184C321.011 52.3184 320.655 52.419 320.35 52.62C320.048 52.8178 319.815 53.0772 319.65 53.3981C319.487 53.7159 319.406 54.0612 319.406 54.4341V55.2852C319.406 55.7845 319.494 56.2093 319.669 56.5594C319.847 56.9096 320.095 57.1771 320.413 57.3619C320.731 57.5435 321.102 57.6343 321.527 57.6343C321.803 57.6343 322.054 57.5954 322.281 57.5175C322.508 57.4365 322.704 57.3165 322.869 57.1576C323.035 56.9988 323.161 56.8026 323.249 56.5692L324.625 56.8172C324.515 57.2225 324.317 57.5775 324.032 57.8823C323.75 58.1838 323.395 58.4189 322.967 58.5875C322.542 58.7529 322.057 58.8356 321.512 58.8356ZM327.785 54.2493V58.6848H326.331V51.2144H327.727V52.4303H327.819C327.991 52.0347 328.26 51.717 328.626 51.4771C328.996 51.2371 329.461 51.1172 330.022 51.1172C330.531 51.1172 330.977 51.2242 331.36 51.4381C331.742 51.6489 332.039 51.9634 332.25 52.3817C332.461 52.7999 332.566 53.3171 332.566 53.9331V58.6848H331.112V54.1082C331.112 53.5667 330.971 53.1436 330.689 52.8388C330.406 52.5308 330.019 52.3768 329.526 52.3768C329.189 52.3768 328.889 52.4498 328.626 52.5957C328.367 52.7416 328.161 52.9556 328.009 53.2376C327.86 53.5165 327.785 53.8537 327.785 54.2493ZM337.663 58.8356C336.94 58.8356 336.317 58.6718 335.795 58.3443C335.276 58.0136 334.878 57.5581 334.599 56.9777C334.32 56.3973 334.181 55.7326 334.181 54.9837C334.181 54.2249 334.323 53.5554 334.609 52.975C334.894 52.3914 335.296 51.9358 335.815 51.6084C336.333 51.2809 336.945 51.1172 337.648 51.1172C338.216 51.1172 338.721 51.2225 339.166 51.4333C339.61 51.6408 339.968 51.9326 340.241 52.3087C340.516 52.6848 340.68 53.1242 340.732 53.6267H339.316C339.239 53.2766 339.06 52.975 338.781 52.7221C338.506 52.4692 338.136 52.3428 337.673 52.3428C337.267 52.3428 336.912 52.4498 336.607 52.6638C336.306 52.8745 336.071 53.176 335.902 53.5684C335.734 53.9574 335.649 54.4179 335.649 54.9496C335.649 55.4943 335.732 55.9645 335.897 56.36C336.063 56.7556 336.296 57.062 336.598 57.2792C336.903 57.4965 337.261 57.6051 337.673 57.6051C337.948 57.6051 338.198 57.5548 338.422 57.4543C338.649 57.3506 338.838 57.203 338.991 57.0117C339.146 56.8204 339.255 56.5902 339.316 56.3211H340.732C340.68 56.8042 340.523 57.2355 340.26 57.6148C339.997 57.9942 339.646 58.2925 339.205 58.5097C338.767 58.7269 338.253 58.8356 337.663 58.8356ZM345.506 58.8356C344.77 58.8356 344.137 58.6783 343.605 58.3638C343.076 58.046 342.668 57.6002 342.379 57.0263C342.094 56.4492 341.951 55.7732 341.951 54.9982C341.951 54.233 342.094 53.5586 342.379 52.975C342.668 52.3914 343.07 51.9358 343.585 51.6084C344.104 51.2809 344.71 51.1172 345.404 51.1172C345.826 51.1172 346.234 51.1869 346.63 51.3263C347.026 51.4657 347.381 51.6846 347.695 51.9829C348.01 52.2812 348.258 52.6686 348.439 53.1452C348.621 53.6186 348.712 54.1941 348.712 54.8718V55.3873H342.773V54.2979H347.287C347.287 53.9153 347.209 53.5765 347.053 53.2814C346.897 52.9831 346.679 52.7481 346.396 52.5762C346.118 52.4044 345.79 52.3184 345.414 52.3184C345.006 52.3184 344.649 52.419 344.344 52.62C344.043 52.8178 343.809 53.0772 343.644 53.3981C343.482 53.7159 343.401 54.0612 343.401 54.4341V55.2852C343.401 55.7845 343.488 56.2093 343.663 56.5594C343.842 56.9096 344.09 57.1771 344.407 57.3619C344.725 57.5435 345.096 57.6343 345.521 57.6343C345.797 57.6343 346.048 57.5954 346.275 57.5175C346.502 57.4365 346.698 57.3165 346.863 57.1576C347.029 56.9988 347.155 56.8026 347.243 56.5692L348.619 56.8172C348.509 57.2225 348.311 57.5775 348.026 57.8823C347.744 58.1838 347.389 58.4189 346.961 58.5875C346.536 58.7529 346.051 58.8356 345.506 58.8356Z" fill="#111231"/>
<path d="M273.032 207.589V217.326H271.353V207.589H273.032ZM277.004 211.849V213.18H272.604V211.849H277.004ZM277.559 207.589V208.927H272.604V207.589H277.559ZM278.281 213.788V213.635C278.281 213.113 278.357 212.629 278.509 212.184C278.66 211.733 278.879 211.343 279.164 211.013C279.454 210.679 279.806 210.42 280.221 210.238C280.64 210.05 281.112 209.957 281.638 209.957C282.169 209.957 282.641 210.05 283.056 210.238C283.475 210.42 283.83 210.679 284.119 211.013C284.409 211.343 284.63 211.733 284.781 212.184C284.933 212.629 285.009 213.113 285.009 213.635V213.788C285.009 214.31 284.933 214.794 284.781 215.24C284.63 215.685 284.409 216.076 284.119 216.41C283.83 216.74 283.477 216.998 283.063 217.186C282.648 217.368 282.178 217.46 281.652 217.46C281.121 217.46 280.646 217.368 280.227 217.186C279.813 216.998 279.46 216.74 279.171 216.41C278.881 216.076 278.66 215.685 278.509 215.24C278.357 214.794 278.281 214.31 278.281 213.788ZM279.893 213.635V213.788C279.893 214.114 279.926 214.422 279.993 214.711C280.06 215.001 280.165 215.255 280.308 215.474C280.45 215.692 280.633 215.864 280.856 215.989C281.079 216.113 281.344 216.176 281.652 216.176C281.95 216.176 282.209 216.113 282.427 215.989C282.65 215.864 282.833 215.692 282.976 215.474C283.118 215.255 283.223 215.001 283.29 214.711C283.361 214.422 283.397 214.114 283.397 213.788V213.635C283.397 213.314 283.361 213.011 283.29 212.725C283.223 212.435 283.116 212.179 282.969 211.956C282.826 211.733 282.644 211.559 282.421 211.435C282.202 211.305 281.941 211.241 281.638 211.241C281.335 211.241 281.072 211.305 280.849 211.435C280.631 211.559 280.45 211.733 280.308 211.956C280.165 212.179 280.06 212.435 279.993 212.725C279.926 213.011 279.893 213.314 279.893 213.635ZM288.085 207.054V217.326H286.467V207.054H288.085ZM291.576 207.054V217.326H289.957V207.054H291.576ZM293.034 213.788V213.635C293.034 213.113 293.109 212.629 293.261 212.184C293.412 211.733 293.631 211.343 293.916 211.013C294.206 210.679 294.558 210.42 294.973 210.238C295.392 210.05 295.864 209.957 296.391 209.957C296.921 209.957 297.394 210.05 297.808 210.238C298.227 210.42 298.582 210.679 298.872 211.013C299.161 211.343 299.382 211.733 299.534 212.184C299.685 212.629 299.761 213.113 299.761 213.635V213.788C299.761 214.31 299.685 214.794 299.534 215.24C299.382 215.685 299.161 216.076 298.872 216.41C298.582 216.74 298.23 216.998 297.815 217.186C297.4 217.368 296.93 217.46 296.404 217.46C295.873 217.46 295.399 217.368 294.98 217.186C294.565 216.998 294.213 216.74 293.923 216.41C293.633 216.076 293.412 215.685 293.261 215.24C293.109 214.794 293.034 214.31 293.034 213.788ZM294.645 213.635V213.788C294.645 214.114 294.679 214.422 294.745 214.711C294.812 215.001 294.917 215.255 295.06 215.474C295.202 215.692 295.385 215.864 295.608 215.989C295.831 216.113 296.096 216.176 296.404 216.176C296.703 216.176 296.961 216.113 297.18 215.989C297.403 215.864 297.585 215.692 297.728 215.474C297.871 215.255 297.975 215.001 298.042 214.711C298.114 214.422 298.149 214.114 298.149 213.788V213.635C298.149 213.314 298.114 213.011 298.042 212.725C297.975 212.435 297.868 212.179 297.721 211.956C297.579 211.733 297.396 211.559 297.173 211.435C296.955 211.305 296.694 211.241 296.391 211.241C296.087 211.241 295.824 211.305 295.601 211.435C295.383 211.559 295.202 211.733 295.06 211.956C294.917 212.179 294.812 212.435 294.745 212.725C294.679 213.011 294.645 213.314 294.645 213.635ZM303.078 215.721L304.75 210.09H305.78L305.499 211.776L303.813 217.326H302.891L303.078 215.721ZM302.095 210.09L303.399 215.748L303.506 217.326H302.476L300.517 210.09H302.095ZM307.344 215.681L308.608 210.09H310.18L308.227 217.326H307.197L307.344 215.681ZM305.953 210.09L307.605 215.654L307.812 217.326H306.89L305.184 211.769L304.904 210.09H305.953ZM314.466 217.46C313.931 217.46 313.448 217.373 313.015 217.199C312.587 217.021 312.222 216.773 311.919 216.457C311.62 216.14 311.39 215.768 311.23 215.34C311.069 214.912 310.989 214.451 310.989 213.956V213.688C310.989 213.122 311.071 212.609 311.236 212.15C311.401 211.691 311.631 211.299 311.925 210.973C312.219 210.643 312.567 210.391 312.968 210.217C313.37 210.044 313.804 209.957 314.272 209.957C314.79 209.957 315.242 210.044 315.63 210.217C316.018 210.391 316.339 210.637 316.593 210.953C316.852 211.265 317.043 211.637 317.168 212.07C317.297 212.502 317.362 212.979 317.362 213.501V214.19H311.771V213.033H315.77V212.906C315.762 212.616 315.704 212.344 315.597 212.09C315.494 211.836 315.336 211.631 315.122 211.475C314.908 211.319 314.622 211.241 314.266 211.241C313.998 211.241 313.76 211.299 313.55 211.414C313.345 211.526 313.174 211.689 313.035 211.903C312.897 212.117 312.79 212.375 312.714 212.678C312.643 212.977 312.607 213.314 312.607 213.688V213.956C312.607 214.272 312.65 214.566 312.734 214.838C312.824 215.106 312.953 215.34 313.122 215.541C313.292 215.741 313.497 215.899 313.737 216.015C313.978 216.127 314.252 216.183 314.56 216.183C314.948 216.183 315.293 216.105 315.597 215.948C315.9 215.792 316.163 215.572 316.386 215.286L317.235 216.109C317.079 216.336 316.876 216.555 316.626 216.764C316.377 216.969 316.071 217.137 315.71 217.266C315.354 217.395 314.939 217.46 314.466 217.46ZM320.238 211.468V217.326H318.626V210.09H320.164L320.238 211.468ZM322.451 210.044L322.438 211.542C322.34 211.524 322.233 211.51 322.117 211.501C322.005 211.492 321.894 211.488 321.782 211.488C321.506 211.488 321.263 211.528 321.053 211.608C320.844 211.684 320.668 211.796 320.525 211.943C320.387 212.085 320.28 212.259 320.204 212.464C320.128 212.669 320.084 212.899 320.07 213.153L319.703 213.18C319.703 212.725 319.747 212.304 319.836 211.916C319.925 211.528 320.059 211.187 320.238 210.893C320.42 210.599 320.648 210.369 320.92 210.204C321.196 210.039 321.515 209.957 321.876 209.957C321.974 209.957 322.079 209.966 322.19 209.983C322.306 210.001 322.393 210.021 322.451 210.044ZM327.52 215.367C327.52 215.206 327.48 215.061 327.4 214.932C327.319 214.798 327.166 214.678 326.938 214.571C326.715 214.464 326.385 214.366 325.949 214.277C325.565 214.192 325.213 214.092 324.892 213.976C324.575 213.855 324.303 213.71 324.076 213.541C323.849 213.372 323.673 213.171 323.548 212.939C323.423 212.707 323.361 212.44 323.361 212.137C323.361 211.842 323.425 211.564 323.554 211.301C323.684 211.038 323.869 210.806 324.11 210.605C324.35 210.405 324.642 210.246 324.986 210.131C325.333 210.015 325.721 209.957 326.149 209.957C326.755 209.957 327.275 210.059 327.707 210.264C328.144 210.465 328.479 210.739 328.71 211.087C328.942 211.43 329.058 211.818 329.058 212.25H327.446C327.446 212.059 327.397 211.88 327.299 211.715C327.206 211.546 327.063 211.41 326.871 211.307C326.68 211.2 326.439 211.147 326.149 211.147C325.873 211.147 325.643 211.192 325.46 211.281C325.282 211.365 325.148 211.477 325.059 211.615C324.974 211.753 324.932 211.905 324.932 212.07C324.932 212.19 324.954 212.299 324.999 212.398C325.048 212.491 325.128 212.578 325.24 212.658C325.351 212.734 325.503 212.805 325.694 212.872C325.891 212.939 326.136 213.004 326.43 213.066C326.983 213.182 327.458 213.332 327.854 213.514C328.256 213.693 328.563 213.924 328.777 214.21C328.991 214.491 329.098 214.847 329.098 215.28C329.098 215.601 329.029 215.895 328.891 216.162C328.757 216.426 328.561 216.655 328.302 216.851C328.044 217.043 327.734 217.192 327.373 217.299C327.016 217.406 326.615 217.46 326.169 217.46C325.514 217.46 324.959 217.344 324.504 217.112C324.049 216.876 323.704 216.575 323.468 216.209C323.236 215.839 323.12 215.456 323.12 215.059H324.678C324.696 215.358 324.778 215.596 324.925 215.775C325.077 215.948 325.264 216.076 325.487 216.156C325.714 216.232 325.949 216.269 326.189 216.269C326.479 216.269 326.722 216.232 326.918 216.156C327.114 216.076 327.264 215.969 327.366 215.835C327.469 215.697 327.52 215.541 327.52 215.367Z" fill="#111231"/>
<path d="M273.014 143.607V166.848H268.804V147.703H268.668L263.232 151.176V147.318L269.009 143.607H273.014ZM278.916 166.848V163.807L286.984 155.897C287.756 155.118 288.399 154.425 288.913 153.82C289.428 153.215 289.814 152.629 290.071 152.061C290.328 151.494 290.457 150.888 290.457 150.245C290.457 149.512 290.29 148.884 289.957 148.362C289.624 147.832 289.167 147.424 288.584 147.136C288.002 146.849 287.34 146.705 286.598 146.705C285.834 146.705 285.165 146.864 284.59 147.181C284.015 147.492 283.568 147.934 283.251 148.509C282.94 149.084 282.785 149.769 282.785 150.563H278.779C278.779 149.088 279.116 147.806 279.789 146.716C280.463 145.627 281.389 144.783 282.57 144.185C283.757 143.588 285.119 143.289 286.655 143.289C288.214 143.289 289.583 143.58 290.763 144.163C291.943 144.745 292.859 145.543 293.509 146.557C294.168 147.571 294.497 148.729 294.497 150.03C294.497 150.9 294.33 151.755 293.997 152.595C293.664 153.434 293.078 154.365 292.238 155.386C291.406 156.407 290.237 157.644 288.732 159.097L284.726 163.171V163.33H294.848V166.848H278.916ZM306.843 167.166C305.33 167.166 303.976 166.882 302.781 166.314C301.585 165.739 300.636 164.953 299.932 163.954C299.236 162.955 298.866 161.813 298.82 160.527H302.906C302.981 161.48 303.394 162.259 304.143 162.865C304.892 163.462 305.792 163.761 306.843 163.761C307.668 163.761 308.402 163.572 309.045 163.194C309.688 162.815 310.195 162.29 310.566 161.616C310.936 160.943 311.118 160.175 311.11 159.313C311.118 158.435 310.933 157.656 310.554 156.975C310.176 156.294 309.658 155.761 309 155.375C308.341 154.981 307.585 154.785 306.73 154.785C306.034 154.777 305.349 154.906 304.676 155.171C304.003 155.435 303.469 155.783 303.076 156.215L299.274 155.59L300.488 143.607H313.97V147.125H303.972L303.303 153.287H303.439C303.87 152.78 304.479 152.36 305.266 152.027C306.053 151.687 306.915 151.516 307.853 151.516C309.261 151.516 310.516 151.849 311.621 152.515C312.726 153.173 313.596 154.081 314.231 155.239C314.867 156.396 315.184 157.72 315.184 159.211C315.184 160.746 314.829 162.116 314.118 163.319C313.414 164.514 312.434 165.456 311.178 166.144C309.93 166.825 308.485 167.166 306.843 167.166ZM319.213 166.848V143.607H323.423V154.285H323.707L332.774 143.607H337.915L328.927 154.036L337.994 166.848H332.933L325.999 156.884L323.423 159.925V166.848H319.213Z" fill="#111231"/>
<path d="M238.106 184.884C237.617 184.884 237.201 184.751 236.858 184.485C236.514 184.217 236.251 183.829 236.07 183.321C235.888 182.811 235.797 182.195 235.797 181.473C235.797 180.756 235.888 180.143 236.07 179.635C236.254 179.125 236.517 178.736 236.861 178.468C237.207 178.197 237.622 178.062 238.106 178.062C238.59 178.062 239.004 178.197 239.348 178.468C239.694 178.736 239.957 179.125 240.139 179.635C240.323 180.143 240.415 180.756 240.415 181.473C240.415 182.195 240.324 182.811 240.142 183.321C239.961 183.829 239.698 184.217 239.354 184.485C239.011 184.751 238.595 184.884 238.106 184.884ZM238.106 184.171C238.59 184.171 238.966 183.937 239.234 183.471C239.502 183.004 239.636 182.338 239.636 181.473C239.636 180.898 239.575 180.409 239.452 180.005C239.331 179.6 239.155 179.292 238.926 179.08C238.699 178.869 238.426 178.763 238.106 178.763C237.626 178.763 237.251 178.999 236.981 179.473C236.711 179.944 236.576 180.611 236.576 181.473C236.576 182.048 236.636 182.537 236.757 182.939C236.878 183.341 237.052 183.647 237.279 183.856C237.508 184.066 237.784 184.171 238.106 184.171ZM245.032 183.548V183.198C245.032 182.956 245.081 182.735 245.181 182.534C245.282 182.33 245.429 182.168 245.622 182.047C245.816 181.924 246.052 181.862 246.329 181.862C246.61 181.862 246.845 181.924 247.035 182.047C247.226 182.168 247.369 182.33 247.467 182.534C247.564 182.735 247.613 182.956 247.613 183.198V183.548C247.613 183.79 247.563 184.013 247.463 184.216C247.366 184.417 247.221 184.579 247.029 184.703C246.839 184.824 246.605 184.884 246.329 184.884C246.048 184.884 245.811 184.824 245.619 184.703C245.426 184.579 245.28 184.417 245.181 184.216C245.081 184.013 245.032 183.79 245.032 183.548ZM245.693 183.198V183.548C245.693 183.749 245.741 183.93 245.836 184.09C245.931 184.248 246.095 184.327 246.329 184.327C246.556 184.327 246.715 184.248 246.808 184.09C246.904 183.93 246.951 183.749 246.951 183.548V183.198C246.951 182.997 246.906 182.818 246.815 182.66C246.724 182.5 246.562 182.42 246.329 182.42C246.102 182.42 245.938 182.5 245.839 182.66C245.742 182.818 245.693 182.997 245.693 183.198ZM241.724 179.748V179.398C241.724 179.156 241.774 178.935 241.874 178.734C241.975 178.53 242.122 178.368 242.315 178.247C242.509 178.124 242.745 178.062 243.021 178.062C243.302 178.062 243.538 178.124 243.728 178.247C243.918 178.368 244.062 178.53 244.159 178.734C244.257 178.935 244.305 179.156 244.305 179.398V179.748C244.305 179.99 244.256 180.213 244.156 180.416C244.059 180.617 243.914 180.779 243.722 180.903C243.532 181.024 243.298 181.084 243.021 181.084C242.74 181.084 242.504 181.024 242.311 180.903C242.119 180.779 241.973 180.617 241.874 180.416C241.774 180.213 241.724 179.99 241.724 179.748ZM242.386 179.398V179.748C242.386 179.949 242.433 180.13 242.529 180.29C242.624 180.448 242.788 180.527 243.021 180.527C243.248 180.527 243.408 180.448 243.501 180.29C243.596 180.13 243.644 179.949 243.644 179.748V179.398C243.644 179.197 243.599 179.018 243.508 178.86C243.417 178.7 243.255 178.62 243.021 178.62C242.794 178.62 242.631 178.7 242.532 178.86C242.435 179.018 242.386 179.197 242.386 179.398ZM241.971 184.793L246.536 178.153H247.275L242.71 184.793H241.971Z" fill="#606176"/>
<path d="M355.645 184.884C355.265 184.884 354.922 184.809 354.617 184.657C354.313 184.506 354.068 184.298 353.885 184.035C353.701 183.771 353.6 183.471 353.583 183.133H354.361C354.392 183.434 354.528 183.682 354.77 183.879C355.014 184.074 355.306 184.171 355.645 184.171C355.918 184.171 356.16 184.107 356.372 183.98C356.586 183.852 356.753 183.677 356.874 183.454C356.997 183.23 357.059 182.976 357.059 182.692C357.059 182.403 356.995 182.144 356.868 181.917C356.742 181.688 356.569 181.508 356.349 181.376C356.128 181.244 355.877 181.177 355.593 181.175C355.39 181.173 355.182 181.204 354.968 181.269C354.754 181.332 354.578 181.413 354.439 181.512L353.687 181.421L354.089 178.153H357.539V178.866H354.763L354.53 180.825H354.569C354.705 180.717 354.876 180.627 355.081 180.556C355.287 180.484 355.5 180.449 355.723 180.449C356.13 180.449 356.492 180.546 356.809 180.741C357.129 180.933 357.38 181.197 357.562 181.532C357.745 181.867 357.837 182.249 357.837 182.679C357.837 183.103 357.742 183.481 357.552 183.814C357.364 184.145 357.104 184.407 356.774 184.599C356.443 184.789 356.067 184.884 355.645 184.884ZM361.291 184.884C360.803 184.884 360.386 184.751 360.043 184.485C359.699 184.217 359.436 183.829 359.255 183.321C359.073 182.811 358.983 182.195 358.983 181.473C358.983 180.756 359.073 180.143 359.255 179.635C359.439 179.125 359.702 178.736 360.046 178.468C360.392 178.197 360.807 178.062 361.291 178.062C361.775 178.062 362.189 178.197 362.533 178.468C362.879 178.736 363.142 179.125 363.324 179.635C363.508 180.143 363.6 180.756 363.6 181.473C363.6 182.195 363.509 182.811 363.327 183.321C363.146 183.829 362.883 184.217 362.539 184.485C362.196 184.751 361.78 184.884 361.291 184.884ZM361.291 184.171C361.775 184.171 362.151 183.937 362.419 183.471C362.687 183.004 362.821 182.338 362.821 181.473C362.821 180.898 362.76 180.409 362.637 180.005C362.516 179.6 362.34 179.292 362.111 179.08C361.884 178.869 361.611 178.763 361.291 178.763C360.811 178.763 360.436 178.999 360.166 179.473C359.896 179.944 359.761 180.611 359.761 181.473C359.761 182.048 359.821 182.537 359.942 182.939C360.063 183.341 360.237 183.647 360.464 183.856C360.693 184.066 360.969 184.171 361.291 184.171ZM368.217 183.548V183.198C368.217 182.956 368.266 182.735 368.366 182.534C368.467 182.33 368.614 182.168 368.807 182.047C369.001 181.924 369.237 181.862 369.514 181.862C369.795 181.862 370.03 181.924 370.22 182.047C370.411 182.168 370.554 182.33 370.652 182.534C370.749 182.735 370.798 182.956 370.798 183.198V183.548C370.798 183.79 370.748 184.013 370.648 184.216C370.551 184.417 370.406 184.579 370.214 184.703C370.024 184.824 369.79 184.884 369.514 184.884C369.233 184.884 368.996 184.824 368.804 184.703C368.611 184.579 368.465 184.417 368.366 184.216C368.266 184.013 368.217 183.79 368.217 183.548ZM368.878 183.198V183.548C368.878 183.749 368.926 183.93 369.021 184.09C369.116 184.248 369.28 184.327 369.514 184.327C369.741 184.327 369.901 184.248 369.993 184.09C370.089 183.93 370.136 183.749 370.136 183.548V183.198C370.136 182.997 370.091 182.818 370 182.66C369.909 182.5 369.747 182.42 369.514 182.42C369.287 182.42 369.123 182.5 369.024 182.66C368.927 182.818 368.878 182.997 368.878 183.198ZM364.91 179.748V179.398C364.91 179.156 364.959 178.935 365.059 178.734C365.16 178.53 365.307 178.368 365.5 178.247C365.694 178.124 365.93 178.062 366.206 178.062C366.487 178.062 366.723 178.124 366.913 178.247C367.103 178.368 367.247 178.53 367.345 178.734C367.442 178.935 367.49 179.156 367.49 179.398V179.748C367.49 179.99 367.441 180.213 367.341 180.416C367.244 180.617 367.099 180.779 366.907 180.903C366.717 181.024 366.483 181.084 366.206 181.084C365.925 181.084 365.689 181.024 365.496 180.903C365.304 180.779 365.158 180.617 365.059 180.416C364.959 180.213 364.91 179.99 364.91 179.748ZM365.571 179.398V179.748C365.571 179.949 365.618 180.13 365.714 180.29C365.809 180.448 365.973 180.527 366.206 180.527C366.433 180.527 366.593 180.448 366.686 180.29C366.781 180.13 366.829 179.949 366.829 179.748V179.398C366.829 179.197 366.784 179.018 366.693 178.86C366.602 178.7 366.44 178.62 366.206 178.62C365.979 178.62 365.816 178.7 365.717 178.86C365.62 179.018 365.571 179.197 365.571 179.398ZM365.156 184.793L369.721 178.153H370.46L365.895 184.793H365.156Z" fill="#606176"/>
<circle cx="299.451" cy="120.44" r="9.70109" fill="#F77E53"/>
<path d="M358.514 164.99C360.992 156.023 361.385 146.601 359.657 137.452C357.878 128.03 353.9 119.164 348.048 111.579C342.197 103.994 334.638 97.9052 325.991 93.8107C317.343 89.7163 307.852 87.7322 298.293 88.0208C288.734 88.3093 279.379 90.8623 270.993 95.471C262.606 100.08 255.427 106.613 250.041 114.537C244.655 122.462 241.216 131.551 240.005 141.064C238.984 149.089 239.572 157.222 241.719 164.99" stroke="#297CFD" stroke-width="11.3282" stroke-linecap="round"/>
<path d="M348.048 111.579C342.197 103.994 334.638 97.9052 325.991 93.8107C317.343 89.7163 307.852 87.7322 298.293 88.0208C288.734 88.3093 279.379 90.8623 270.993 95.471C262.606 100.08 255.427 106.613 250.041 114.537C244.655 122.462 241.216 131.551 240.005 141.064C238.984 149.089 239.572 157.222 241.719 164.99" stroke="#F77E53" stroke-width="11.3282" stroke-linecap="round"/>
<circle cx="377.63" cy="39.9783" r="15.9783" fill="#2076FF"/>
<path d="M370.783 38.6296L376.593 44.4399L385.308 34.2719" stroke="#FEFEFE" stroke-width="2.85326" stroke-linecap="round" stroke-linejoin="round"/>
<defs>
<filter id="filter0_d_3_54" x="159.641" y="0.032608" width="280.761" height="308.152" filterUnits="userSpaceOnUse" color-interpolation-filters="sRGB">
<feFlood flood-opacity="0" result="BackgroundImageFix"/>
<feColorMatrix in="SourceAlpha" type="matrix" values="0 0 0 0 0 0 0 0 0 0 0 0 0 0 0 0 0 0 127 0" result="hardAlpha"/>
<feOffset dy="22.8261"/>
<feGaussianBlur stdDeviation="25.6793"/>
<feColorMatrix type="matrix" values="0 0 0 0 0 0 0 0 0 0 0 0 0 0 0 0 0 0 0.05 0"/>
<feBlend mode="normal" in2="BackgroundImageFix" result="effect1_dropShadow_3_54"/>
<feBlend mode="normal" in="SourceGraphic" in2="effect1_dropShadow_3_54" result="shape"/>
</filter>
</defs>
</svg>
